<svg width="42" height="16" viewBox="0 0 42 16" fill="none" xmlns="http://www.w3.org/2000/svg">
<mask id="mask0_0_194" style="mask-type:luminance" maskUnits="userSpaceOnUse" x="-7" y="-3" width="56" height="21">
<rect x="-6.08913" y="-2.26812" width="54.1255" height="20.1605" fill="white"/>
</mask>
<g mask="url(#mask0_0_194)">
<path fill-rule="evenodd" clip-rule="evenodd" d="M16.0472 0C11.9349 0 7.82283 0.582704 4.6937 1.74823C-1.56457 4.07929 -1.56457 7.87502 4.6937 10.2061C7.82283 11.3716 11.9247 11.9546 16.0687 11.9546C20.2127 11.9546 24.3145 11.3716 27.4436 10.2061C33.6596 7.87502 33.659 4.07929 27.4007 1.74823C24.2716 0.582704 20.1595 0 16.0472 0ZM16.0266 0.929336C19.494 0.929336 22.9613 1.41735 25.583 2.40963C30.8687 4.37843 30.8685 7.57589 25.6251 9.54469C20.3394 11.5135 11.7551 11.5135 6.4694 9.54469C1.1837 7.57589 1.1837 4.37843 6.4694 2.40963C9.0911 1.4331 12.5592 0.929336 16.0266 0.929336ZM16.0267 1.87436C13.109 1.87436 10.3601 2.2995 8.28812 3.08702C6.3007 3.82729 5.20145 4.78812 5.07459 5.82765C5.0323 6.09541 5.58218 6.3001 6.30103 6.31585H6.34315C7.01972 6.31585 7.56944 6.11104 7.61172 5.85903C7.69629 5.05576 8.58379 4.31543 10.0638 3.74841C11.6706 3.1499 13.7856 2.81938 16.0267 2.81938C16.7456 2.81938 17.2953 2.61463 17.2953 2.34687C17.2953 2.07912 16.7456 1.87436 16.0267 1.87436ZM8.71085 7.81214C8.01024 7.81214 7.44228 8.02369 7.44228 8.28465C7.44228 8.54561 8.01024 8.75717 8.71085 8.75717C9.41146 8.75717 9.97942 8.54561 9.97942 8.28465C9.97942 8.02369 9.41146 7.81214 8.71085 7.81214ZM29.1615 10.411C28.8391 10.411 28.522 10.4583 28.2894 10.5528C27.782 10.7418 27.782 11.0409 28.2894 11.2142L29.3465 11.6079C29.0928 11.7969 28.9658 12.0017 28.9658 12.2223C28.9658 12.6003 29.3462 12.9626 30.065 13.2303L35.4779 15.2148C36.2391 15.4983 37.211 15.64 38.1835 15.64C39.1561 15.64 40.1288 15.4983 40.89 15.2305C42.37 14.6793 42.37 13.7816 40.89 13.2303L35.4779 11.2142C34.7591 10.9464 33.7863 10.8047 32.7715 10.8047C32.1795 10.8047 31.6296 10.852 31.1222 10.9465L30.065 10.5528C29.8113 10.4583 29.484 10.411 29.1615 10.411ZM32.7713 11.7341C33.1096 11.7341 33.4477 11.7814 33.6592 11.8759L39.0291 13.876C39.5365 14.0651 39.5365 14.3642 39.0291 14.5374C38.5217 14.7264 37.7186 14.7264 37.2534 14.5374L31.8835 12.553C31.6298 12.4584 31.5028 12.3326 31.5028 12.2066C31.5028 12.0806 31.6298 11.9546 31.8835 11.8759C32.1372 11.7814 32.433 11.7341 32.7713 11.7341Z" fill="#E6ECEF"/>
</g>
</svg>
