<svg width="68" height="56" viewBox="0 0 68 56" fill="none" xmlns="http://www.w3.org/2000/svg">
<rect width="68" height="56" rx="4" fill="#F2F5F7"/>
<path fill-rule="evenodd" clip-rule="evenodd" d="M4 4V52H64V4H4ZM4 0H64C66.2091 0 68 1.79086 68 4V52C68 54.2091 66.2091 56 64 56H4C1.79086 56 0 54.2091 0 52V4C0 1.79086 1.79086 0 4 0Z" fill="#C2D1D9"/>
<path fill-rule="evenodd" clip-rule="evenodd" d="M18.5 24C14.3579 24 11 20.6421 11 16.5C11 12.3579 14.3579 9 18.5 9C22.6421 9 26 12.3579 26 16.5C26 20.6421 22.6421 24 18.5 24ZM18.5 20C20.433 20 22 18.433 22 16.5C22 14.567 20.433 13 18.5 13C16.567 13 15 14.567 15 16.5C15 18.433 16.567 20 18.5 20Z" fill="#C2D1D9"/>
<path fill-rule="evenodd" clip-rule="evenodd" d="M14.4081 47.4203C13.6237 48.198 12.3574 48.1925 11.5797 47.4081C10.802 46.6237 10.8075 45.3573 11.5919 44.5797L28.0413 28.2719L37.3126 36.3361C38.146 37.061 38.2339 38.3243 37.509 39.1577C36.7841 39.9911 35.5209 40.0791 34.6874 39.3542L28.2192 33.7281L14.4081 47.4203Z" fill="#C2D1D9"/>
<path fill-rule="evenodd" clip-rule="evenodd" d="M29.4143 47.4142C28.6333 48.1952 27.3669 48.1953 26.5858 47.4143C25.8048 46.6333 25.8047 45.3669 26.5857 44.5858L52.9084 18.2608L67.3191 30.9052C68.1493 31.6337 68.2318 32.8974 67.5033 33.7276C66.7748 34.5579 65.5112 34.6404 64.6809 33.9119L53.0872 23.7392L29.4143 47.4142Z" fill="#C2D1D9"/>
</svg>
