<svg width="17" height="18" viewBox="0 0 17 18" fill="none" xmlns="http://www.w3.org/2000/svg">
<path fill-rule="evenodd" clip-rule="evenodd" d="M2.83328 8.13606C2.83328 8.77891 3.46793 9.29969 4.24991 9.29969C5.0319 9.29969 5.66655 8.77891 5.66655 8.13606V3.96864L6.08163 4.30924C6.33804 4.51965 6.6922 4.64868 7.08319 4.64868C7.86517 4.64868 8.49983 4.12906 8.49983 3.48738C8.49983 3.16538 8.34116 2.87477 8.08475 2.66436L5.25148 0.339439C4.99507 0.130196 4.64091 0 4.24991 0C3.85892 0 3.50476 0.130196 3.24835 0.339439L0.415075 2.66436C0.158663 2.87477 0 3.16538 0 3.48738C0 4.12906 0.634654 4.64868 1.41664 4.64868C1.80763 4.64868 2.16179 4.51965 2.4182 4.30924L2.83328 3.96864V8.13606ZM14.1667 5.81231H9.91681C9.13483 5.81231 8.50017 6.33193 8.50017 6.97477C8.50017 7.61644 9.13483 8.13606 9.91681 8.13606H12.7501C13.5321 8.13606 14.1667 8.65685 14.1667 9.29969V13.9484C14.1667 14.5912 13.5321 15.112 12.7501 15.112H7.08354C6.30155 15.112 5.6669 14.5912 5.6669 13.9484V12.7871C5.6669 12.1442 5.03224 11.6234 4.25026 11.6234C3.46828 11.6234 2.83362 12.1442 2.83362 12.7871V15.112C2.83362 16.3954 4.10151 17.4369 5.6669 17.4369H14.1667C15.7321 17.4369 17 16.3954 17 15.112V8.13606C17 6.85271 15.7321 5.81231 14.1667 5.81231Z" fill="#D6D6D6"/>
</svg>
