<svg width="115" height="30" viewBox="0 0 115 30" fill="none" xmlns="http://www.w3.org/2000/svg">
<path fill-rule="evenodd" clip-rule="evenodd" d="M57.5 2.44113C38.9563 2.44113 23.9583 6.26143 23.9583 10.9849C23.9583 17.3928 57.5 26.852 57.5 26.852C57.5 26.852 91.0417 17.3928 91.0417 10.9849C91.0417 6.26143 76.0438 2.44113 57.5 2.44113ZM57.5 14.0363C50.8875 14.0363 45.5208 12.6693 45.5208 10.9849C45.5208 9.30058 50.8875 7.93357 57.5 7.93357C64.1125 7.93357 69.4792 9.30058 69.4792 10.9849C69.4792 12.6693 64.1125 14.0363 57.5 14.0363Z" fill="#DE5E35"/>
<mask id="mask0_223_2004" style="mask-type:luminance" maskUnits="userSpaceOnUse" x="23" y="2" width="69" height="25">
<path fill-rule="evenodd" clip-rule="evenodd" d="M57.5 2.44113C38.9563 2.44113 23.9583 6.26143 23.9583 10.9849C23.9583 17.3928 57.5 26.852 57.5 26.852C57.5 26.852 91.0417 17.3928 91.0417 10.9849C91.0417 6.26143 76.0438 2.44113 57.5 2.44113ZM57.5 14.0363C50.8875 14.0363 45.5208 12.6693 45.5208 10.9849C45.5208 9.30058 50.8875 7.93357 57.5 7.93357C64.1125 7.93357 69.4792 9.30058 69.4792 10.9849C69.4792 12.6693 64.1125 14.0363 57.5 14.0363Z" fill="white"/>
</mask>
<g mask="url(#mask0_223_2004)">
<rect width="115" height="29.293" fill="#424B5A"/>
</g>
</svg>
