<svg width="58" height="15" viewBox="0 0 58 15" fill="none" xmlns="http://www.w3.org/2000/svg">
<path fill-rule="evenodd" clip-rule="evenodd" d="M44.7267 3.99692L44.6368 3.98165C42.7785 3.53121 40.5905 3.31744 38.0728 3.34798L37.9829 3.30217L38.0428 3.29453C40.3207 3.16474 41.6695 3.02732 42.0891 2.87463C42.209 2.75247 42.0591 2.68376 41.5496 2.66849C40.4107 2.70666 39.3316 2.76774 38.4025 2.86699C39.6014 2.66849 40.051 2.53107 39.7812 2.46236C38.6123 2.46999 37.3235 2.62268 36.0047 2.92807C36.4843 2.7143 36.6941 2.59215 36.5742 2.57688C35.9148 2.68376 35.3753 2.80592 34.8957 2.9357C33.8767 3.22582 33.0674 3.49303 32.438 3.73734L32.408 3.75261C30.8195 4.41683 29.6805 5.08104 29.0211 5.76053L28.7813 5.81397L28.7214 5.8216C27.7623 5.51622 26.5933 5.25664 25.2146 5.0505C23.5961 4.77566 21.6779 4.52371 19.4599 4.27177C17.0621 3.95111 14.6044 3.69153 12.1466 3.4854C12.1166 4.19542 13.4954 4.75275 16.1629 5.16502V5.17266C15.2338 5.17266 14.3046 5.21083 13.4055 5.27954C13.5853 5.93612 15.4136 6.38657 18.8604 6.63088L18.8305 6.64614C17.4817 6.62324 16.3727 6.7454 15.5035 6.99734C16.6425 7.5623 18.6506 7.82952 21.558 7.81425C20.9885 7.89059 20.5389 7.96694 20.2392 8.05856C19.6997 8.20361 19.5198 8.37158 19.6997 8.56244C20.3291 8.85256 21.4381 8.98235 23.0866 8.95944L23.1765 8.98998L23.1465 9.00525C20.2991 9.75345 16.8523 10.0894 12.836 10.0207L12.776 10.0283C10.3183 10.0207 7.68072 9.72291 4.83333 9.12741C7.68072 10.1734 11.4872 10.9292 16.1929 11.4102C21.558 11.8606 26.953 11.8988 32.3181 11.5094H32.408C37.6232 11.1277 42.0292 10.3337 45.6858 9.14268C47.3643 8.52427 48.4133 7.92877 48.8329 7.35617C51.5604 7.37907 53.5086 7.18057 54.7375 6.75303L54.7075 6.73776C53.7784 6.82174 52.01 6.79884 49.4024 6.66141V6.58507C52.2798 6.50109 53.9882 6.26441 54.5277 5.87505C52.5195 6.07355 50.5413 6.08118 48.5931 5.89031C48.2335 5.2032 46.9447 4.56952 44.7267 3.99692Z" fill="#DE5E35"/>
<mask id="mask0_0_992" style="mask-type:luminance" maskUnits="userSpaceOnUse" x="4" y="2" width="51" height="10">
<path fill-rule="evenodd" clip-rule="evenodd" d="M44.7267 3.99692L44.6368 3.98165C42.7785 3.53121 40.5905 3.31744 38.0728 3.34798L37.9829 3.30217L38.0428 3.29453C40.3207 3.16474 41.6695 3.02732 42.0891 2.87463C42.209 2.75247 42.0591 2.68376 41.5496 2.66849C40.4107 2.70666 39.3316 2.76774 38.4025 2.86699C39.6014 2.66849 40.051 2.53107 39.7812 2.46236C38.6123 2.46999 37.3235 2.62268 36.0047 2.92807C36.4843 2.7143 36.6941 2.59215 36.5742 2.57688C35.9148 2.68376 35.3753 2.80592 34.8957 2.9357C33.8767 3.22582 33.0674 3.49303 32.438 3.73734L32.408 3.75261C30.8195 4.41683 29.6805 5.08104 29.0211 5.76053L28.7813 5.81397L28.7214 5.8216C27.7623 5.51622 26.5933 5.25664 25.2146 5.0505C23.5961 4.77566 21.6779 4.52371 19.4599 4.27177C17.0621 3.95111 14.6044 3.69153 12.1466 3.4854C12.1166 4.19542 13.4954 4.75275 16.1629 5.16502V5.17266C15.2338 5.17266 14.3046 5.21083 13.4055 5.27954C13.5853 5.93612 15.4136 6.38657 18.8604 6.63088L18.8305 6.64614C17.4817 6.62324 16.3727 6.7454 15.5035 6.99734C16.6425 7.5623 18.6506 7.82952 21.558 7.81425C20.9885 7.89059 20.5389 7.96694 20.2392 8.05856C19.6997 8.20361 19.5198 8.37158 19.6997 8.56244C20.3291 8.85256 21.4381 8.98235 23.0866 8.95944L23.1765 8.98998L23.1465 9.00525C20.2991 9.75345 16.8523 10.0894 12.836 10.0207L12.776 10.0283C10.3183 10.0207 7.68072 9.72291 4.83333 9.12741C7.68072 10.1734 11.4872 10.9292 16.1929 11.4102C21.558 11.8606 26.953 11.8988 32.3181 11.5094H32.408C37.6232 11.1277 42.0292 10.3337 45.6858 9.14268C47.3643 8.52427 48.4133 7.92877 48.8329 7.35617C51.5604 7.37907 53.5086 7.18057 54.7375 6.75303L54.7075 6.73776C53.7784 6.82174 52.01 6.79884 49.4024 6.66141V6.58507C52.2798 6.50109 53.9882 6.26441 54.5277 5.87505C52.5195 6.07355 50.5413 6.08118 48.5931 5.89031C48.2335 5.2032 46.9447 4.56952 44.7267 3.99692Z" fill="white"/>
</mask>
<g mask="url(#mask0_0_992)">
<rect width="58" height="14.7739" fill="white"/>
</g>
</svg>
