<svg width="58" height="15" viewBox="0 0 58 15" fill="none" xmlns="http://www.w3.org/2000/svg">
<path fill-rule="evenodd" clip-rule="evenodd" d="M45.9155 10.0303V6.50242V4.74334C45.9155 3.82473 42.9825 3.07795 39.3762 3.07795H18.6214C15.0151 3.07795 12.0833 3.82473 12.0833 4.74334V6.50242V10.0303C12.0833 10.9493 15.0151 11.696 18.6214 11.696H39.3774C42.9825 11.696 45.9155 10.9493 45.9155 10.0303ZM34.9552 7.38654C34.9552 8.22305 32.2798 8.9033 28.9982 8.9033C25.7154 8.9033 23.0424 8.22274 23.046 7.38623C23.0472 7.05602 23.4677 6.75114 24.1722 6.50211C25.2565 6.12002 27.0141 5.86977 29.0018 5.86977C30.9883 5.86977 32.7471 6.12033 33.829 6.50242C34.5311 6.75145 34.9552 7.05633 34.9552 7.38654ZM42.0013 5.53102V4.25962V4.0704L41.2548 4.07101L36.2659 4.07498L36.2851 5.5359L42.0013 5.53102ZM28.9994 9.74347C34.1021 9.74347 38.2524 8.68571 38.2524 7.38654C38.2524 7.07403 38.0044 6.77525 37.5647 6.50242H42.6171V10.0303C42.6171 10.4863 41.1614 10.8556 39.375 10.8556H18.6202C16.8314 10.8556 15.3781 10.4863 15.3781 10.0303V6.50242H20.4281C19.992 6.77525 19.7476 7.07403 19.7476 7.38654C19.7476 8.68571 23.8967 9.74347 28.9994 9.74347Z" fill="black"/>
<mask id="mask0_0_1076" style="mask-type:luminance" maskUnits="userSpaceOnUse" x="12" y="3" width="34" height="9">
<path fill-rule="evenodd" clip-rule="evenodd" d="M45.9155 10.0303V6.50242V4.74334C45.9155 3.82473 42.9825 3.07795 39.3762 3.07795H18.6214C15.0151 3.07795 12.0833 3.82473 12.0833 4.74334V6.50242V10.0303C12.0833 10.9493 15.0151 11.696 18.6214 11.696H39.3774C42.9825 11.696 45.9155 10.9493 45.9155 10.0303ZM34.9552 7.38654C34.9552 8.22305 32.2798 8.9033 28.9982 8.9033C25.7154 8.9033 23.0424 8.22274 23.046 7.38623C23.0472 7.05602 23.4677 6.75114 24.1722 6.50211C25.2565 6.12002 27.0141 5.86977 29.0018 5.86977C30.9883 5.86977 32.7471 6.12033 33.829 6.50242C34.5311 6.75145 34.9552 7.05633 34.9552 7.38654ZM42.0013 5.53102V4.25962V4.0704L41.2548 4.07101L36.2659 4.07498L36.2851 5.5359L42.0013 5.53102ZM28.9994 9.74347C34.1021 9.74347 38.2524 8.68571 38.2524 7.38654C38.2524 7.07403 38.0044 6.77525 37.5647 6.50242H42.6171V10.0303C42.6171 10.4863 41.1614 10.8556 39.375 10.8556H18.6202C16.8314 10.8556 15.3781 10.4863 15.3781 10.0303V6.50242H20.4281C19.992 6.77525 19.7476 7.07403 19.7476 7.38654C19.7476 8.68571 23.8967 9.74347 28.9994 9.74347Z" fill="white"/>
</mask>
<g mask="url(#mask0_0_1076)">
<rect width="58" height="14.7739" fill="white"/>
</g>
</svg>
