<svg width="24" height="24" viewBox="0 0 24 24" fill="none" xmlns="http://www.w3.org/2000/svg">
<path fill-rule="evenodd" clip-rule="evenodd" d="M4 11H9V5H4V11ZM4 18H9V12H4V18ZM10 18H15V12H10V18ZM16 18H21V12H16V18ZM10 11H15V5H10V11ZM16 5V11H21V5H16Z" fill="#C2D1D9"/>
<mask id="mask0_0_216" style="mask-type:luminance" maskUnits="userSpaceOnUse" x="4" y="5" width="17" height="13">
<path fill-rule="evenodd" clip-rule="evenodd" d="M4 11H9V5H4V11ZM4 18H9V12H4V18ZM10 18H15V12H10V18ZM16 18H21V12H16V18ZM10 11H15V5H10V11ZM16 5V11H21V5H16Z" fill="white"/>
</mask>
<g mask="url(#mask0_0_216)">
<rect width="24" height="24" fill="#C2D1D9"/>
</g>
</svg>
