<svg width="10" height="6" viewBox="0 0 10 6" fill="none" xmlns="http://www.w3.org/2000/svg">
<path fill-rule="evenodd" clip-rule="evenodd" d="M4.001 1C4.001 1.276 3.889 1.526 3.708 1.707L3.415 2L9 2C9.553 2 10 2.448 10 3C10 3.552 9.553 4 9 4H3.415L3.708 4.293C3.889 4.474 4.001 4.724 4.001 5C4.001 5.552 3.553 6 3 6C2.724 6 2.474 5.888 2.293 5.707L0.293 3.707C0.113 3.526 0 3.276 0 3C0 2.724 0.113 2.474 0.293 2.293L2.293 0.293C2.474 0.112 2.724 0 3 0C3.553 0 4.001 0.448 4.001 1Z" fill="#686868"/>
</svg>
