<svg width="309" height="40" viewBox="0 0 309 40" fill="none" xmlns="http://www.w3.org/2000/svg">
<path fill-rule="evenodd" clip-rule="evenodd" d="M3.00528 1.00176C1.89877 1.00176 1.00176 1.89877 1.00176 3.00528V36.0634C1.00176 37.1699 1.89877 38.0669 3.00528 38.0669H305.537C306.644 38.0669 307.541 37.1699 307.541 36.0634V3.00529C307.541 1.89877 306.644 1.00176 305.537 1.00176H3.00528ZM0 2.00352C0 0.897005 0.897008 0 2.00352 0H306.996C308.103 0 309 0.897008 309 2.00352V37.5285C309 38.635 308.103 39.532 306.996 39.532H2.00353C0.897014 39.532 0 38.635 0 37.5285V2.00352Z" fill="#C2D1D9"/>
<mask id="mask0_0_215" style="mask-type:luminance" maskUnits="userSpaceOnUse" x="0" y="0" width="309" height="40">
<path fill-rule="evenodd" clip-rule="evenodd" d="M3.00528 1.00176C1.89877 1.00176 1.00176 1.89877 1.00176 3.00528V36.0634C1.00176 37.1699 1.89877 38.0669 3.00528 38.0669H305.537C306.644 38.0669 307.541 37.1699 307.541 36.0634V3.00529C307.541 1.89877 306.644 1.00176 305.537 1.00176H3.00528ZM0 2.00352C0 0.897005 0.897008 0 2.00352 0H306.996C308.103 0 309 0.897008 309 2.00352V37.5285C309 38.635 308.103 39.532 306.996 39.532H2.00353C0.897014 39.532 0 38.635 0 37.5285V2.00352Z" fill="white"/>
</mask>
<g mask="url(#mask0_0_215)">
<rect width="309" height="39.532" fill="#C2D1D9"/>
</g>
</svg>
