<svg width="24" height="24" viewBox="0 0 24 24" fill="none" xmlns="http://www.w3.org/2000/svg">
<path fill-rule="evenodd" clip-rule="evenodd" d="M4.91606 12.0001C4.91606 11.2206 5.04552 10.4734 5.27658 9.77245L1.23229 6.68408C0.444084 8.28445 0 10.0877 0 12.0001C0 13.9108 0.443538 15.713 1.23065 17.3123L5.27275 14.2179C5.04388 13.5203 4.91606 12.7757 4.91606 12.0001Z" fill="#FBBC05"/>
<path fill-rule="evenodd" clip-rule="evenodd" d="M12.0171 4.90909C13.7104 4.90909 15.2398 5.50909 16.4415 6.49091L19.9374 3C17.8071 1.14545 15.0759 0 12.0171 0C7.26813 0 3.18671 2.71582 1.2323 6.684L5.27658 9.77236C6.20845 6.94364 8.86476 4.90909 12.0171 4.90909Z" fill="#EB4335"/>
<path fill-rule="evenodd" clip-rule="evenodd" d="M12.0171 19.0908C8.86476 19.0908 6.20845 17.0563 5.27658 14.2275L1.2323 17.3154C3.18671 21.2841 7.26813 23.9999 12.0171 23.9999C14.9481 23.9999 17.7465 22.9592 19.8467 21.0092L16.0078 18.0414C14.9246 18.7237 13.5607 19.0908 12.0171 19.0908Z" fill="#34A853"/>
<path fill-rule="evenodd" clip-rule="evenodd" d="M23.4879 11.9999C23.4879 11.2908 23.3787 10.5272 23.2148 9.81812H12.0171V14.4545H18.4626C18.1403 16.0352 17.2631 17.2505 16.0078 18.0414L19.8467 21.0092C22.053 18.9616 23.4879 15.9114 23.4879 11.9999Z" fill="#4285F4"/>
</svg>
