<svg width="24" height="24" viewBox="0 0 24 24" fill="none" xmlns="http://www.w3.org/2000/svg">
<path fill-rule="evenodd" clip-rule="evenodd" d="M12.1049 18.5599C16.8698 14.2298 18.3645 12.6902 19.34 10.8749C19.7899 10.0376 20 9.27441 20 8.5C20 6.52457 18.4754 5 16.5 5C15.3777 5 14.2536 5.52835 13.5227 6.38668L12 8.17481L10.4773 6.38668C9.74637 5.52835 8.62227 5 7.5 5C5.52457 5 4 6.52457 4 8.5C4 9.27778 4.21194 10.0443 4.66601 10.8857C5.64456 12.699 7.14926 14.2464 11.8964 18.551L12.0051 18.65L12.1049 18.5599ZM10.5802 3.88099L12 5.09L13.4198 3.88099C14.3334 3.32208 15.4028 3 16.5 3C19.58 3 22 5.42 22 8.5C22 12.28 18.6 15.36 13.45 20.04L12 21.35L10.55 20.03C5.4 15.36 2 12.28 2 8.5C2 5.42 4.42 3 7.5 3C8.59721 3 9.66658 3.32208 10.5802 3.88099Z" fill="#979797"/>
<mask id="mask0_0_1117" style="mask-type:luminance" maskUnits="userSpaceOnUse" x="2" y="3" width="20" height="19">
<path fill-rule="evenodd" clip-rule="evenodd" d="M12.1049 18.5599C16.8698 14.2298 18.3645 12.6902 19.34 10.8749C19.7899 10.0376 20 9.27441 20 8.5C20 6.52457 18.4754 5 16.5 5C15.3777 5 14.2536 5.52835 13.5227 6.38668L12 8.17481L10.4773 6.38668C9.74637 5.52835 8.62227 5 7.5 5C5.52457 5 4 6.52457 4 8.5C4 9.27778 4.21194 10.0443 4.66601 10.8857C5.64456 12.699 7.14926 14.2464 11.8964 18.551L12.0051 18.65L12.1049 18.5599ZM10.5802 3.88099L12 5.09L13.4198 3.88099C14.3334 3.32208 15.4028 3 16.5 3C19.58 3 22 5.42 22 8.5C22 12.28 18.6 15.36 13.45 20.04L12 21.35L10.55 20.03C5.4 15.36 2 12.28 2 8.5C2 5.42 4.42 3 7.5 3C8.59721 3 9.66658 3.32208 10.5802 3.88099Z" fill="white"/>
</mask>
<g mask="url(#mask0_0_1117)">
<rect width="24" height="24" fill="#C2D1D9"/>
</g>
</svg>
