<svg width="58" height="15" viewBox="0 0 58 15" fill="none" xmlns="http://www.w3.org/2000/svg">
<path fill-rule="evenodd" clip-rule="evenodd" d="M36.8602 7.39043H32.1178C32.1178 9.32042 32.1178 11.696 32.1178 11.696H25.0905C25.0905 11.696 25.0905 9.34345 25.0905 7.39043H21.75V5.8687H25.0905V4.88441C25.0905 4.17947 26.4055 3.07795 32.1824 3.07795L37.3898 3.08303V4.5602C37.3898 4.5602 34.2254 4.5602 33.6102 4.5602C32.9949 4.5602 32.1202 4.63856 32.1202 4.97473V5.86899H37.4743L36.8602 7.39043Z" fill="#DE5E35"/>
<mask id="mask0_0_998" style="mask-type:luminance" maskUnits="userSpaceOnUse" x="21" y="3" width="17" height="9">
<path fill-rule="evenodd" clip-rule="evenodd" d="M36.8602 7.39043H32.1178C32.1178 9.32042 32.1178 11.696 32.1178 11.696H25.0905C25.0905 11.696 25.0905 9.34345 25.0905 7.39043H21.75V5.8687H25.0905V4.88441C25.0905 4.17947 26.4055 3.07795 32.1824 3.07795L37.3898 3.08303V4.5602C37.3898 4.5602 34.2254 4.5602 33.6102 4.5602C32.9949 4.5602 32.1202 4.63856 32.1202 4.97473V5.86899H37.4743L36.8602 7.39043Z" fill="white"/>
</mask>
<g mask="url(#mask0_0_998)">
<rect width="58" height="14.7739" fill="white"/>
</g>
</svg>
