<svg width="7" height="6" viewBox="0 0 7 6" fill="none" xmlns="http://www.w3.org/2000/svg">
<path fill-rule="evenodd" clip-rule="evenodd" d="M0 1.47971C0 1.89001 0.129499 2.2603 0.340665 2.5284L2.67398 5.48931C2.88515 5.75741 3.17682 5.9233 3.49998 5.9233C3.82198 5.9233 4.11248 5.75741 4.32481 5.48931L6.65813 2.5284C6.86929 2.2603 6.99996 1.89001 6.99996 1.47971C6.99996 0.662094 6.4773 0 5.83213 0C5.51014 0 5.21847 0.164412 5.00847 0.432509L3.49998 2.34769L1.99149 0.432509C1.78032 0.164412 1.48866 0 1.16549 0C0.521497 0 0 0.662094 0 1.47971Z" fill="#222222"/>
</svg>
