<svg width="23" height="19" viewBox="0 0 23 19" fill="none" xmlns="http://www.w3.org/2000/svg">
<path fill-rule="evenodd" clip-rule="evenodd" d="M10.9469 14.0144C10.9469 14.0144 11.5004 14.3529 12.0524 14.0144C12.6058 13.6759 18.6878 9.92604 18.6878 6.31657C18.6878 6.26585 18.6748 6.21749 18.6677 6.16794C18.6748 6.06768 18.6878 5.96742 18.6878 5.8648C18.6878 2.62571 15.4693 0 11.5004 0C7.53005 0 4.31296 2.62571 4.31296 5.8648C4.31296 5.96742 4.32446 6.06768 4.33165 6.16794C4.3259 6.21749 4.31296 6.26585 4.31296 6.31657C4.31296 9.92604 10.9469 14.0144 10.9469 14.0144ZM11.4992 3.60946C13.0258 3.60946 14.2635 4.61917 14.2635 5.86479C14.2635 7.11159 13.0258 8.1213 11.4992 8.1213C9.9712 8.1213 8.73353 7.11159 8.73353 5.86479C8.73353 4.61917 9.9712 3.60946 11.4992 3.60946ZM20.1251 11.8016L19.1146 11.2483L17.2502 12.7782V16.5186L23.0001 18.8789L20.1251 11.8016ZM2.87496 11.8016L0 18.8789L5.74993 16.5186V12.7782L3.88551 11.2483L2.87496 11.8016ZM11.5 16.5186C10.705 16.5186 9.9863 16.2556 9.46593 15.8286L7.18753 13.9578V17.1096L11.5 18.8789L15.8124 17.1096V13.9578L13.5326 15.8286C13.0122 16.2556 12.2935 16.5186 11.5 16.5186Z" fill="#D6D6D6"/>
</svg>
