<svg width="48" height="31" viewBox="0 0 48 31" fill="none" xmlns="http://www.w3.org/2000/svg">
<path fill-rule="evenodd" clip-rule="evenodd" d="M0 0H48.0001V2.35346H0V0ZM0 4.70055H48.0001V7.05401H0V4.70055ZM0 9.39475H48.0001V11.7482H0V9.39475ZM0 14.0889H48.0001V16.4424H0V14.0889ZM0 18.7959H48.0001V21.1366H0V18.7959ZM0 23.4837H48.0001V25.8371H0V23.4837ZM0 28.1779H48.0001V30.5313H0V28.1779Z" fill="#BD3D44"/>
<path fill-rule="evenodd" clip-rule="evenodd" d="M0 2.35345H48.0001V4.70054H0V2.35345ZM0 7.04764H48.0001V9.39473H0V7.04764ZM0 11.7418H48.0001V14.0953H0V11.7418ZM0 16.4424H48.0001V18.7958H0V16.4424ZM0 21.1366H48.0001V23.49H0V21.1366ZM0 25.8308H48.0001V28.1842H0V25.8308Z" fill="white"/>
<path fill-rule="evenodd" clip-rule="evenodd" d="M0 0H19.2V16.4424H0V0Z" fill="#192F5D"/>
<path fill-rule="evenodd" clip-rule="evenodd" d="M1.60004 0.699686L1.77899 1.35484H2.33688L1.88425 1.75556L2.05793 2.41071L1.60004 2.00363L1.14741 2.40435L1.31583 1.75556L0.857932 1.35484H1.43162L1.60004 0.699686ZM4.80004 0.699686L4.97373 1.35484H5.54215L5.08425 1.75556L5.25267 2.41071L4.80004 2.00363L4.34215 2.40435L4.51583 1.75556L4.0632 1.35484H4.62109L4.80004 0.699686ZM8.00005 0.699686L8.17373 1.35484H8.73689L8.28426 1.75556L8.45794 2.41071L8.00005 2.00363L7.54215 2.40435L7.71583 1.75556L7.25794 1.35484H7.82636L8.00005 0.699686ZM11.2 0.699686L11.3737 1.35484H11.9422L11.4843 1.75556L11.6579 2.41071L11.2 2.00363L10.7422 2.40435L10.9211 1.75556L10.4579 1.35484H11.0211L11.2 0.699686ZM14.4001 0.699686L14.5737 1.35484H15.1369L14.6843 1.75556L14.8579 2.41071L14.4001 2.00363L13.9422 2.40435L14.1158 1.75556L13.6632 1.35484H14.2264L14.4001 0.699686ZM17.6001 0.699686L17.7737 1.35484H18.3422L17.879 1.75556L18.058 2.41071L17.6001 2.00363L17.1422 2.40435L17.3211 1.75556L16.8579 1.35484H17.4264L17.6001 0.699686ZM3.20004 2.35347L3.37372 3.00226H3.94741L3.48951 3.39662L3.65794 4.05177L3.21057 3.65105L2.75267 4.05177L2.91583 3.39662L2.47372 3.00226H3.03688L3.20004 2.35347ZM6.40004 2.35347L6.57899 3.00226H7.14215L6.67899 3.39662L6.85794 4.05177L6.40004 3.65105L5.94215 4.05177L6.11583 3.39662L5.65794 3.00226H6.22636L6.40004 2.35347ZM9.60005 2.35347L9.77373 3.00226H10.3422L9.88426 3.39662L10.0579 4.05177L9.60005 3.65105L9.14215 4.05177L9.31584 3.39662L8.8632 3.00226H9.4211L9.60005 2.35347ZM12.8 2.35347L12.979 3.00226H13.5422L13.079 3.39662L13.2579 4.05177L12.8 3.65105L12.3474 4.05177L12.5158 3.39662L12.0579 3.00226H12.6316L12.8 2.35347ZM16.0001 2.35347L16.1737 3.00226H16.7422L16.2843 3.39662L16.4579 4.05177L16.0001 3.65105L15.5422 4.05177L15.7158 3.39662L15.2632 3.00226H15.8264L16.0001 2.35347ZM1.60004 3.98181L1.77899 4.64332H2.33688L1.88425 5.04404L2.05793 5.69283L1.60004 5.29211L1.14741 5.69283L1.31583 5.04404L0.857932 4.64332H1.43162L1.60004 3.98181ZM4.80004 3.98181L4.97373 4.64332H5.54215L5.08425 5.04404L5.25267 5.69283L4.80004 5.29211L4.34215 5.69283L4.51583 5.03768L4.0632 4.63696H4.62109L4.80004 3.98181ZM8.00005 3.98181L8.17373 4.63696H8.73689L8.28426 5.03768L8.45794 5.68647L8.00005 5.28575L7.54215 5.68647L7.71583 5.03132L7.25794 4.6306H7.82636L8.00005 3.98181ZM11.2 3.98181L11.3737 4.63696H11.9422L11.4843 5.03768L11.6579 5.68647L11.2 5.28575L10.7422 5.68647L10.9211 5.03132L10.4579 4.6306H11.0211L11.2 3.98181ZM14.4001 3.98181L14.5737 4.63696H15.1369L14.6843 5.03768L14.8579 5.68647L14.4001 5.28575L13.9422 5.68647L14.1158 5.03132L13.6632 4.6306H14.2264L14.4001 3.98181ZM17.6001 3.98181L17.7737 4.63696H18.3422L17.879 5.03768L18.058 5.68647L17.6001 5.28575L17.1422 5.68647L17.3211 5.03132L16.8579 4.6306H17.4264L17.6001 3.98181ZM3.20004 5.63559L3.37372 6.28438H3.94741L3.48951 6.6851L3.6632 7.34025L3.2053 6.93317L2.74741 7.33389L2.92109 6.6851L2.46846 6.28438H3.03162L3.20004 5.63559ZM6.40004 5.63559L6.57899 6.28438H7.14215L6.67899 6.6851L6.85794 7.34025L6.40004 6.93317L5.94215 7.33389L6.11583 6.6851L5.65794 6.28438H6.22636L6.40004 5.63559ZM9.60005 5.63559L9.77373 6.28438H10.3422L9.88426 6.6851L10.0579 7.34025L9.60005 6.93317L9.14215 7.33389L9.31584 6.6851L8.8632 6.28438H9.4211L9.60005 5.63559ZM12.8 5.63559L12.979 6.28438H13.5422L13.0843 6.6851L13.2579 7.34025L12.8 6.93317L12.3474 7.33389L12.5158 6.6851L12.0579 6.28438H12.6316L12.8 5.63559ZM16.0001 5.63559L16.1737 6.28438H16.7422L16.2843 6.6851L16.4579 7.34025L16.0001 6.93317L15.5422 7.33389L15.7158 6.6851L15.2632 6.28438H15.8264L16.0001 5.63559ZM1.60004 7.28301L1.77899 7.9318H2.33688L1.88425 8.33252L2.05793 8.98767L1.60004 8.58059L1.14741 8.98131L1.31583 8.33252L0.857932 7.9318H1.43162L1.60004 7.28301ZM4.80004 7.28301L4.97373 7.9318H5.54215L5.08425 8.33252L5.25267 8.98131L4.80004 8.58059L4.34215 8.98131L4.51583 8.33252L4.0632 7.9318H4.62109L4.80004 7.28301ZM8.00005 7.28301L8.17373 7.9318H8.73689L8.28426 8.33252L8.45794 8.98767L8.00005 8.58059L7.54215 8.98131L7.71583 8.33252L7.25794 7.9318H7.82636L8.00005 7.28301ZM11.2 7.28301L11.3737 7.9318H11.9422L11.4843 8.33252L11.6579 8.98767L11.2 8.58059L10.7422 8.98131L10.9211 8.33252L10.4579 7.9318H11.0211L11.2 7.28301ZM14.4001 7.28301L14.5737 7.9318H15.1369L14.6843 8.33252L14.8579 8.98767L14.4001 8.58059L13.9422 8.98131L14.1158 8.33252L13.6632 7.9318H14.2264L14.4001 7.28301ZM17.6001 7.28301L17.7737 7.9318H18.3422L17.879 8.33252L18.058 8.98767L17.6001 8.58059L17.1422 8.98131L17.3158 8.33252L16.8527 7.9318H17.4211L17.6001 7.28301ZM3.20004 8.92407L3.37372 9.57922H3.94741L3.48951 9.97358L3.6632 10.6287L3.2053 10.2216L2.74741 10.6287L2.92109 9.97358L2.46846 9.57286H3.03162L3.20004 8.92407ZM6.40004 8.92407L6.57899 9.57922H7.14215L6.67899 9.97358L6.85794 10.6287L6.40004 10.2216L5.94215 10.6287L6.11583 9.97358L5.65794 9.57286H6.22636L6.40004 8.92407ZM9.60005 8.92407L9.77373 9.57922H10.3422L9.88426 9.97358L10.0579 10.6287L9.60005 10.2216L9.14215 10.6287L9.31584 9.97358L8.8632 9.57286H9.4211L9.60005 8.92407ZM12.8 8.92407L12.979 9.57922H13.5422L13.0843 9.97358L13.2579 10.6287L12.8 10.2216L12.3474 10.6287L12.5158 9.97358L12.0579 9.57286H12.6316L12.8 8.92407ZM16.0001 8.92407L16.1737 9.57922H16.7422L16.2843 9.97358L16.4579 10.6287L16.0001 10.2216L15.5422 10.6287L15.7158 9.97358L15.2632 9.57286H15.8264L16.0001 8.92407ZM1.60004 10.5651L1.77899 11.2203H2.33688L1.88425 11.621L2.05793 12.2634L1.60004 11.8691L1.14741 12.2634L1.31583 11.6146L0.857932 11.2139H1.43162L1.60004 10.5651ZM4.80004 10.5651L4.97373 11.2203H5.54215L5.08425 11.621L5.25794 12.2634L4.80004 11.8691L4.34215 12.2634L4.52109 11.6146L4.0632 11.2139H4.62109L4.80004 10.5651ZM8.00005 10.5651L8.17373 11.2203H8.73689L8.28426 11.621L8.45794 12.2634L8.00005 11.8691L7.54215 12.2634L7.71583 11.6146L7.25794 11.2139H7.82636L8.00005 10.5651ZM11.2 10.5651L11.3737 11.2203H11.9422L11.4843 11.621L11.6579 12.2634L11.2 11.8691L10.7422 12.2634L10.9211 11.6146L10.4579 11.2139H11.0211L11.2 10.5651ZM14.4001 10.5651L14.5737 11.2203H15.1369L14.6843 11.621L14.8579 12.2634L14.4001 11.8691L13.9422 12.2634L14.1158 11.6146L13.6632 11.2139H14.2264L14.4001 10.5651ZM17.6001 10.5651L17.7737 11.2203H18.3422L17.879 11.621L18.058 12.2634L17.6001 11.8691L17.1422 12.2634L17.3211 11.6146L16.8579 11.2139H17.4264L17.6001 10.5651ZM3.20004 12.2125L3.37372 12.8613H3.94741L3.48951 13.2621L3.6632 13.9172L3.2053 13.5101L2.74741 13.9109L2.92109 13.2621L2.46846 12.8613H3.03162L3.20004 12.2125ZM6.40004 12.2125L6.57899 12.8613H7.14215L6.67899 13.2621L6.85794 13.9172L6.40004 13.5101L5.94215 13.9109L6.11583 13.2621L5.65794 12.8613H6.22636L6.40004 12.2125ZM9.60005 12.2125L9.77373 12.8613H10.3422L9.88426 13.2621L10.0579 13.9172L9.60005 13.5101L9.14215 13.9109L9.31584 13.2621L8.8632 12.8613H9.4211L9.60005 12.2125ZM12.8 12.2125L12.979 12.8613H13.5422L13.0843 13.2621L13.2579 13.9172L12.8 13.5101L12.3474 13.9109L12.5158 13.2621L12.0579 12.8613H12.6316L12.8 12.2125ZM16.0001 12.2125L16.1737 12.8613H16.7422L16.2843 13.2621L16.4579 13.9172L16.0001 13.5101L15.5422 13.9109L15.7158 13.2621L15.2632 12.8613H15.8264L16.0001 12.2125ZM1.60004 13.86L1.77899 14.5088H2.33688L1.88425 14.9095L2.05793 15.5583L1.60004 15.1575L1.14741 15.5583L1.31583 14.9031L0.857932 14.5024H1.43162L1.60004 13.86ZM4.80004 13.86L4.97373 14.5088H5.54215L5.08425 14.9095L5.25794 15.5583L4.80004 15.1575L4.34215 15.5583L4.52109 14.9031L4.0632 14.5024H4.62109L4.80004 13.86ZM8.00005 13.86L8.17373 14.5088H8.73689L8.29478 14.9095L8.46847 15.5583L8.01057 15.1575L7.55268 15.5583L7.72636 14.9031L7.26847 14.5024H7.83689L8.00005 13.86ZM11.2 13.86L11.3737 14.5088H11.9422L11.4843 14.9095L11.6579 15.5583L11.2 15.1575L10.7422 15.5583L10.9211 14.9031L10.4579 14.5024H11.0211L11.2 13.86ZM14.4001 13.86L14.5737 14.5088H15.1369L14.6843 14.9095L14.8579 15.5583L14.4001 15.1575L13.9422 15.5583L14.1158 14.9031L13.6632 14.5024H14.2264L14.4001 13.86ZM17.6001 13.86L17.7737 14.5088H18.3422L17.879 14.9095L18.058 15.5583L17.6001 15.1575L17.1422 15.5583L17.3211 14.9031L16.8579 14.5024H17.4264L17.6001 13.86Z" fill="white"/>
</svg>
