<svg width="11" height="6" viewBox="0 0 11 6" fill="none" xmlns="http://www.w3.org/2000/svg">
<path fill-rule="evenodd" clip-rule="evenodd" d="M6.33504 1C6.33504 1.276 6.45331 1.526 6.64445 1.707L6.95386 2L1.05602 2C0.472039 2 -1.35159e-09 2.448 0 3C1.35157e-09 3.552 0.472039 4 1.05602 4H6.95386L6.64445 4.293C6.45331 4.474 6.33504 4.724 6.33504 5C6.33504 5.552 6.80813 6 7.39211 6C7.68357 6 7.94757 5.888 8.13871 5.707L10.2507 3.707C10.4408 3.526 10.5602 3.276 10.5602 3C10.5602 2.724 10.4408 2.474 10.2507 2.293L8.13871 0.292999C7.94757 0.112 7.68357 0 7.39211 0C6.80813 0 6.33504 0.447999 6.33504 1Z" fill="white"/>
</svg>
