<svg width="332" height="32" viewBox="0 0 332 32" fill="none" xmlns="http://www.w3.org/2000/svg">
<path fill-rule="evenodd" clip-rule="evenodd" d="M0 16C0 7.16344 7.16344 0 16 0H315.5C324.337 0 331.5 7.16344 331.5 16C331.5 24.8366 324.337 32 315.5 32H16C7.16344 32 0 24.8366 0 16ZM257.812 14.6842C255.641 14.6842 253.884 14.9864 253.884 15.3596C253.884 15.5468 254.32 15.7158 255.032 15.8382L262.896 17.1895C263.608 17.3119 264.591 17.3876 265.68 17.3876C266.765 17.3876 267.744 17.3119 268.46 17.1895L276.324 15.8382C277.036 15.7158 277.476 15.5468 277.476 15.3596C277.476 14.9864 275.715 14.6842 273.54 14.6842C272.455 14.6842 271.472 14.7593 270.764 14.8817L265.68 15.7557L260.596 14.8817C259.884 14.7593 258.901 14.6842 257.812 14.6842Z" fill="#686868"/>
</svg>
