<svg width="184" height="107" viewBox="0 0 184 107" fill="none" xmlns="http://www.w3.org/2000/svg">
<path fill-rule="evenodd" clip-rule="evenodd" d="M126.507 33.2237C123.333 33.2237 120.446 33.9679 118.365 35.1706L80.5043 57.0517L65.6339 48.46C63.5523 47.264 60.6771 46.5198 57.5029 46.5198C51.143 46.5198 46.0022 49.49 46.0022 53.1645C46.0022 54.9984 47.2788 56.6596 49.3604 57.8557L72.3618 71.1518C74.4435 72.3545 77.3187 73.092 80.5043 73.092C83.6785 73.092 86.5537 72.3545 88.6354 71.1518L134.638 44.5729C136.72 43.3702 138.008 41.709 138.008 39.8684C138.008 36.2005 132.856 33.2237 126.507 33.2237ZM157.054 15.5686C121.125 -5.18954 62.8744 -5.18954 26.9462 15.5686C-8.98205 36.3334 -8.98205 69.989 26.9462 90.7471C62.8744 111.505 121.125 111.505 157.054 90.7471C192.982 69.989 192.982 36.3334 157.054 15.5686ZM140.792 81.3514C113.846 96.9201 70.1545 96.9201 43.2083 81.3514C16.2621 65.7828 16.2621 40.5395 43.2083 24.9709C70.1545 9.4023 113.846 9.4023 140.792 24.9709C167.738 40.5395 167.738 65.7828 140.792 81.3514Z" fill="#686868"/>
</svg>
